<?xml version="1.0" encoding="utf-8"?>
<!-- Generator: Adobe Illustrator 18.1.1, SVG Export Plug-In . SVG Version: 6.00 Build 0)  -->
<svg version="1.1" xmlns="http://www.w3.org/2000/svg" xmlns:xlink="http://www.w3.org/1999/xlink" x="0px" y="0px" width="1500px"
	 height="449.548px" viewBox="0 0 1500 449.548" enable-background="new 0 0 1500 449.548" xml:space="preserve">
<symbol  id="rope" viewBox="-40.899 -19.045 81.8 38.09">
	<path fill="none" stroke="#CEBBB3" stroke-width="4" stroke-miterlimit="10" d="M-40.854-17.042c0,0,44.347-1,80.347,34.667"/>
</symbol>
<g id="Icons">
	<path fill="#CE6363" d="M112.118,426.666H37.882c-8.284,0-15-6.716-15-15v-74.237c0-8.284,6.716-15,15-15h74.237
		c8.284,0,15,6.716,15,15v74.237C127.118,419.95,120.403,426.666,112.118,426.666z"/>
	<path fill="#165AA4" d="M262.118,426.666h-74.237c-8.284,0-15-6.716-15-15v-74.237c0-8.284,6.716-15,15-15h74.237
		c8.284,0,15,6.716,15,15v74.237C277.118,419.95,270.403,426.666,262.118,426.666z"/>
	<path fill="#CEDBED" d="M412.118,426.666h-74.237c-8.284,0-15-6.716-15-15v-74.237c0-8.284,6.716-15,15-15h74.237
		c8.284,0,15,6.716,15,15v74.237C427.118,419.95,420.403,426.666,412.118,426.666z"/>
	<path fill="#7F598D" d="M1012.118,126.641h-74.237c-8.284,0-15-6.716-15-15V37.404c0-8.284,6.716-15,15-15h74.237
		c8.284,0,15,6.716,15,15v74.237C1027.118,119.925,1020.403,126.641,1012.118,126.641z"/>
	<path fill="#FCFCFC" d="M95.478,392.151l6.35-6.334c1.608-1.592,1.608-4.206,0-5.798c-1.608-1.608-4.206-1.608-5.814,0
		l-6.318,6.318l-10.069-10.118c8.705-1.9,15.104-8.315,15.104-15.916c0-8.689-8.299-15.932-18.872-16.63
		c-0.536-0.033-1.088-0.049-1.64-0.049H51.075c-2.274,0-4.109,1.835-4.109,4.109l0,46.789c0,2.274,1.835,4.109,4.109,4.109
		s4.109-1.835,4.109-4.109l0-17.702h13.447l15.234,15.315l-6.204,6.204c-1.608,1.608-1.608,4.206,0,5.814
		c1.608,1.608,4.206,1.608,5.814,0l6.188-6.188l6.269,6.301c1.608,1.608,4.223,1.608,5.814,0c1.608-1.608,1.608-4.206,0-5.814
		L95.478,392.151z M74.803,368.861v-0.016H55.184l0-17.118l19.619,0c5.717,0,10.362,3.833,10.362,8.559
		c0,4.629-4.45,8.413-10.004,8.559C75.047,368.861,74.917,368.861,74.803,368.861z"/>
	<g id="Membership">
	</g>
	<g id="Membership_1_">
	</g>
	<g id="included">
	</g>
	<g>
		<path fill="#E2E5E7" d="M578.11,43.301v58.188c0,2.761-2.239,5-5,5h-96.22c-2.761,0-5-2.239-5-5V43.301c0-2.761,2.239-5,5-5h96.22
			C575.872,38.301,578.11,40.54,578.11,43.301z"/>
		<path fill="#7F598D" d="M562.855,58.714h-33.334c-1.381,0-2.5-1.119-2.5-2.5s1.119-2.5,2.5-2.5h33.334c1.381,0,2.5,1.119,2.5,2.5
			S564.236,58.714,562.855,58.714z"/>
		<path fill="#B3B7BF" d="M562.855,74.895h-33.334c-1.381,0-2.5-1.119-2.5-2.5s1.119-2.5,2.5-2.5h33.334c1.381,0,2.5,1.119,2.5,2.5
			S564.236,74.895,562.855,74.895z"/>
		<path fill="#B3B7BF" d="M562.855,91.077H538.71c-1.381,0-2.5-1.119-2.5-2.5s1.119-2.5,2.5-2.5h24.145c1.381,0,2.5,1.119,2.5,2.5
			S564.236,91.077,562.855,91.077z"/>
		<path fill="#7F598D" d="M507.57,76.961v-2.259c3.569-1.698,6.042-5.326,6.042-9.542v-1.038c0-5.839-4.734-10.573-10.573-10.573
			l0,0c-5.839,0-10.573,4.734-10.573,10.573v1.038c0,4.215,2.473,7.844,6.042,9.542v2.255c-7.158,1.556-14.16,7.431-14.16,14.445
			c0,0.556,0.451,1.007,1.007,1.007h35.369c0.556,0,1.007-0.451,1.007-1.007C521.73,84.42,514.71,78.527,507.57,76.961z"/>
	</g>
	<g>
		<g>
			<path fill="#E2E5E7" d="M858.601,125.417h-67.201c-1.657,0-3-1.343-3-3v-90.27c0-1.657,1.343-3,3-3h67.201c1.657,0,3,1.343,3,3
				v90.27C861.601,124.074,860.258,125.417,858.601,125.417z"/>
			<rect x="794.337" y="34.089" fill="#FFFFFF" width="61.539" height="80.265"/>
			<path fill="#7F598D" d="M844.628,23.969h-13.922c-0.575-2.626-2.907-4.595-5.706-4.595s-5.132,1.969-5.706,4.595h-13.922
				c-1.657,0-3,1.343-3,3v9.659h45.256v-9.659C847.628,25.312,846.285,23.969,844.628,23.969z M825,27.873
				c-1.464,0-2.651-1.187-2.651-2.651s1.187-2.651,2.651-2.651s2.651,1.187,2.651,2.651S826.464,27.873,825,27.873z"/>
			<g>
				<path fill="#7F598D" d="M847.903,88.331c-0.469-1.277-1.492-2.271-2.695-2.716c-0.432-0.146-0.894-0.228-1.375-0.228
					c-0.423,0-0.83,0.063-1.216,0.177c-0.066,0.022-0.133,0.039-0.198,0.065l-0.001,0c-1.147,0.399-2.074,1.264-2.549,2.372
					c-0.475-1.107-1.401-1.972-2.546-2.371c-0.003-0.001-0.006-0.002-0.009-0.003c-0.062-0.025-0.126-0.041-0.189-0.062
					c-0.387-0.114-0.795-0.178-1.218-0.178c-0.484,0-0.947,0.083-1.381,0.23c-1.201,0.446-2.222,1.438-2.69,2.714l-0.008,0.021
					c-0.164,0.456-0.233,0.914-0.231,1.37c0,0.065,0.007,0.128,0.01,0.192c0.004,0.085,0.007,0.17,0.016,0.254
					c0.019,0.172,0.051,0.339,0.089,0.504c0.349,1.666,1.483,3.232,2.331,4.391c0.164,0.223,0.409,0.525,0.709,0.874
					c1.68,1.957,4.437,4.695,5.111,4.709h0.007c0.661,0,3.476-2.794,5.124-4.717c0.287-0.331,0.53-0.631,0.702-0.866
					c0.851-1.161,1.989-2.731,2.334-4.4c0.038-0.165,0.07-0.333,0.088-0.504c0.009-0.086,0.011-0.173,0.015-0.261
					c0.003-0.062,0.009-0.123,0.009-0.185C848.144,89.254,848.072,88.791,847.903,88.331z"/>
				<path fill="#E2E5E7" d="M821.22,90.882h-17.586c-1.104,0-2-0.896-2-2s0.896-2,2-2h17.586c1.104,0,2,0.896,2,2
					S822.325,90.882,821.22,90.882z"/>
				<path fill="#E2E5E7" d="M826.646,101.408h-23.012c-1.104,0-2-0.896-2-2s0.896-2,2-2h23.012c1.104,0,2,0.896,2,2
					S827.75,101.408,826.646,101.408z"/>
			</g>
			<g>
				<path fill="#E2E5E7" d="M847.495,50.534h-27.468c-1.104,0-2-0.896-2-2s0.896-2,2-2h27.468c1.104,0,2,0.896,2,2
					S848.599,50.534,847.495,50.534z"/>
				<path fill="#E2E5E7" d="M809.302,71.586h-5.668c-1.104,0-2-0.896-2-2s0.896-2,2-2h5.668c1.104,0,2,0.896,2,2
					S810.407,71.586,809.302,71.586z"/>
				<path fill="#E2E5E7" d="M839.87,61.06h-19.843c-1.104,0-2-0.896-2-2s0.896-2,2-2h19.843c1.104,0,2,0.896,2,2
					S840.974,61.06,839.87,61.06z"/>
				<path fill="#E2E5E7" d="M809.302,61.06h-5.668c-1.104,0-2-0.896-2-2s0.896-2,2-2h5.668c1.104,0,2,0.896,2,2
					S810.407,61.06,809.302,61.06z"/>
				<path fill="#E2E5E7" d="M844.167,71.586h-24.141c-1.104,0-2-0.896-2-2s0.896-2,2-2h24.141c1.104,0,2,0.896,2,2
					S845.272,71.586,844.167,71.586z"/>
				<path fill="#E2E5E7" d="M809.302,50.534h-5.668c-1.104,0-2-0.896-2-2s0.896-2,2-2h5.668c1.104,0,2,0.896,2,2
					S810.407,50.534,809.302,50.534z"/>
			</g>
			<rect x="794.337" y="114.354" fill="#D9DBDF" width="61.539" height="1"/>
		</g>
	</g>
	<g>
		<path fill="#DAD4C5" d="M715.023,45.655l-38.169-20.516c-1.146-0.668-2.562-0.668-3.708,0l-38.169,20.516
			c-1.479,0.861-2.467,2.336-2.737,3.994c-0.049,0.299,0,11.492,0,11.8l40.743,29.265c1.225,0.801,2.808,0.801,4.032,0
			l40.743-29.265c0-0.308,0.049-11.502,0-11.8C717.49,47.99,716.502,46.516,715.023,45.655z"/>
		<g>
			<path fill="#FFFFFF" d="M705.254,113.56h-61.766V49.506c0-1.105,0.895-2,2-2h57.766c1.105,0,2,0.895,2,2V113.56z"/>
			<g>
				<path fill="#7F598D" d="M660.902,62.164h-5.669c-1.104,0-2-0.896-2-2s0.896-2,2-2h5.669c1.104,0,2,0.896,2,2
					S662.007,62.164,660.902,62.164z"/>
				<path fill="#E2E5E7" d="M693.479,72.691h-38.245c-1.104,0-2-0.896-2-2s0.896-2,2-2h38.245c1.104,0,2,0.896,2,2
					S694.583,72.691,693.479,72.691z"/>
				<path fill="#E2E5E7" d="M693.479,83.217h-38.245c-1.104,0-2-0.896-2-2s0.896-2,2-2h38.245c1.104,0,2,0.896,2,2
					S694.583,83.217,693.479,83.217z"/>
			</g>
		</g>
		<path fill="#E7E3D5" d="M672.984,90.714L632.24,61.449v56.249c0,1.356,1.099,2.456,2.456,2.456h80.608
			c1.356,0,2.456-1.099,2.456-2.456V61.449l-40.743,29.265C675.791,91.515,674.209,91.515,672.984,90.714z"/>
		<path fill="#E7E3D5" d="M715.304,120.153c0.339,0,0.662-0.069,0.956-0.193C715.966,120.084,715.643,120.153,715.304,120.153
			L715.304,120.153z"/>
		<polygon fill="#E7E3D5" points="717.759,114.436 717.759,113.436 681.571,87.442 680.875,87.942 		"/>
		<polygon opacity="0.1" fill="#A5A4A4" points="717.759,114.436 717.759,113.436 681.571,87.442 680.875,87.942 		"/>
		<polygon fill="#E7E3D5" points="632.24,114.436 669.125,87.942 668.429,87.442 632.24,113.436 		"/>
		<polygon opacity="0.1" fill="#A5A4A4" points="632.24,114.436 669.125,87.942 668.429,87.442 632.24,113.436 		"/>
		<path fill="#F2EFE0" d="M680.875,87.942l-3.858-2.771c-1.225-0.801-2.808-0.801-4.032,0l-3.858,2.771l-36.885,26.494v2.261v1
			c0,0.678,0.275,1.292,0.719,1.736c0.444,0.445,1.058,0.719,1.736,0.719h80.608c0.339,0,0.662-0.069,0.956-0.193
			s0.558-0.304,0.781-0.526c0.444-0.444,0.719-1.058,0.719-1.736v-1v-2.261L680.875,87.942z"/>
	</g>
	<g>
		<path fill="#7F598D" d="M376,29.753h51.569c1.657,0,3,1.343,3,3v21.674H376V29.753z"/>
		<g>
			<g>
				<path fill="#DED9CC" d="M400.329,65.866"/>
				<path fill="#DED9CC" d="M382.038,65.866"/>
			</g>
			<path fill="#DAD4C5" d="M430.569,54.362H376v65.724h51.569c1.657,0,3-1.343,3-3V54.362z"/>
			<path fill="#997AA4" d="M376,54.427l48.647-4.753V27.102c0-1.161-0.837-2.102-1.869-2.102L376,29.753L376,54.427z"/>
			<g>
				<path fill="#E7E3D5" d="M376,54.427l48.647-4.819v63.622c0,1.161-0.661,1.892-1.869,2.102L376,120.086L376,54.427z"/>
				<path fill="#E6E1D7" d="M400.329,65.866"/>
				<path fill="#E6E1D7" d="M382.038,65.866"/>
			</g>
			<g>
				<path fill="#F2EFE0" d="M376,54.427l40.724-9.572v63.622c0,1.161-0.993,1.847-1.869,2.102L376,120.086L376,54.427z"/>
				<path fill="none" stroke="#9FA4AE" stroke-width="4" stroke-linecap="round" stroke-miterlimit="10" d="M400.329,65.866"/>
				<path fill="none" stroke="#9FA4AE" stroke-width="4" stroke-linecap="round" stroke-miterlimit="10" d="M382.038,65.866"/>
			</g>
			<path fill="#E7E3D5" d="M322.431,120.086H376V54.427h-56.569v62.659C319.431,118.743,320.774,120.086,322.431,120.086z"/>
			<path fill="#B29BBB" d="M376,54.427l40.724-9.507V22.349c0-1.161-0.806-2.326-1.869-2.102L376,29.753L376,54.427z"/>
			<g>
				<path fill="#B3B7BF" d="M362.386,81.364h-30.497c-1.104,0-2-0.896-2-2s0.896-2,2-2h30.497c1.104,0,2,0.896,2,2
					S363.491,81.364,362.386,81.364z"/>
				<path fill="#B3B7BF" d="M350.422,68.688h-18.533c-1.104,0-2-0.896-2-2s0.896-2,2-2h18.533c1.104,0,2,0.896,2,2
					S351.527,68.688,350.422,68.688z"/>
				<path fill="#B3B7BF" d="M362.059,94.04h-30.17c-1.104,0-2-0.896-2-2s0.896-2,2-2h30.17c1.104,0,2,0.896,2,2
					S363.164,94.04,362.059,94.04z"/>
				<path fill="#B3B7BF" d="M362.386,106.716h-30.497c-1.104,0-2-0.896-2-2s0.896-2,2-2h30.497c1.104,0,2,0.896,2,2
					S363.491,106.716,362.386,106.716z"/>
			</g>
			<g opacity="0.3">
				<g>
					<path fill="#ABAFB8" d="M385.382,78.973c-0.884,0-1.691-0.589-1.931-1.483c-0.286-1.067,0.347-2.164,1.414-2.449l21.792-5.839
						c1.066-0.289,2.163,0.348,2.449,1.414c0.286,1.067-0.347,2.164-1.414,2.449l-21.792,5.839
						C385.728,78.951,385.553,78.973,385.382,78.973z"/>
					<path fill="#ABAFB8" d="M385.381,66.297c-0.884,0-1.691-0.589-1.931-1.483c-0.286-1.067,0.348-2.164,1.414-2.449l9.159-2.454
						c1.071-0.289,2.164,0.348,2.449,1.414c0.286,1.067-0.348,2.164-1.414,2.449l-9.159,2.454
						C385.727,66.275,385.552,66.297,385.381,66.297z"/>
					<path fill="#ABAFB8" d="M385.379,91.649c-0.884,0-1.691-0.589-1.931-1.483c-0.286-1.067,0.347-2.164,1.414-2.449l21.755-5.829
						c1.064-0.289,2.164,0.348,2.449,1.414c0.286,1.067-0.347,2.164-1.414,2.449l-21.755,5.829
						C385.725,91.627,385.55,91.649,385.379,91.649z"/>
					<path fill="#ABAFB8" d="M385.382,104.324c-0.884,0-1.691-0.589-1.931-1.483c-0.286-1.067,0.347-2.164,1.414-2.449l21.753-5.829
						c1.066-0.291,2.163,0.348,2.449,1.414c0.286,1.067-0.347,2.164-1.414,2.449l-21.753,5.829
						C385.728,104.302,385.553,104.324,385.382,104.324z"/>
				</g>
			</g>
		</g>
		<path fill="#7F598D" d="M322.431,29.753H376v24.674h-56.569V32.753C319.431,31.096,320.774,29.753,322.431,29.753z"/>
	</g>
	<g>
		<g>
			<path fill="#DAD4C5" d="M177.374,53.521h95.251v62.02c0,1.657-1.343,3-3,3h-89.251c-1.657,0-3-1.343-3-3V53.521z"/>
			<path fill="#7F598D" d="M180.374,31.14h89.251c1.657,0,3,1.343,3,3v19.382h-95.251V34.14
				C177.374,32.483,178.717,31.14,180.374,31.14z"/>
			<circle fill="#FCFCFC" cx="197.564" cy="42.106" r="5.04"/>
			<circle fill="#FCFCFC" cx="252.436" cy="42.106" r="5.04"/>
			<path fill="#B3B7BF" d="M197.565,44.607c-1.381,0-2.5-1.119-2.5-2.5V28.75c0-1.381,1.119-2.5,2.5-2.5s2.5,1.119,2.5,2.5v13.357
				C200.065,43.487,198.945,44.607,197.565,44.607z"/>
			<path fill="#E7E3D5" d="M174.741,113.598c0,1.12,1.167,2.028,2.605,2.028h95.307c1.439,0,2.605-0.908,2.605-2.028l-2.633-60.077
				h-95.251L174.741,113.598z"/>
			<path fill="#B3B7BF" d="M252.436,44.607c-1.381,0-2.5-1.119-2.5-2.5V28.75c0-1.381,1.119-2.5,2.5-2.5s2.5,1.119,2.5,2.5v13.357
				C254.936,43.487,253.817,44.607,252.436,44.607z"/>
			<path fill="#F2EFE0" d="M172.431,108.01c0,1.016,1.22,1.84,2.725,1.84h99.687c1.505,0,2.725-0.824,2.725-1.84l-4.943-54.489
				h-95.251L172.431,108.01z"/>
			<path opacity="0.3" fill="#ABAFB8" d="M194.524,74.504h-5.797c-1.104,0-2-0.896-2-2s0.896-2,2-2h5.797c1.104,0,2,0.896,2,2
				S195.628,74.504,194.524,74.504z"/>
			<path opacity="0.3" fill="#ABAFB8" d="M211.241,74.504h-5.796c-1.104,0-2-0.896-2-2s0.896-2,2-2h5.796c1.104,0,2,0.896,2,2
				S212.346,74.504,211.241,74.504z"/>
			<path opacity="0.3" fill="#ABAFB8" d="M227.96,74.504h-5.796c-1.104,0-2-0.896-2-2s0.896-2,2-2h5.796c1.104,0,2,0.896,2,2
				S229.065,74.504,227.96,74.504z"/>
			<path fill="#7F598D" d="M244.679,74.504h-5.797c-1.104,0-2-0.896-2-2s0.896-2,2-2h5.797c1.104,0,2,0.896,2,2
				S245.783,74.504,244.679,74.504z"/>
			<path fill="#7F598D" d="M261.398,74.504h-5.797c-1.104,0-2-0.896-2-2s0.896-2,2-2h5.797c1.104,0,2,0.896,2,2
				S262.502,74.504,261.398,74.504z"/>
			<path opacity="0.3" fill="#ABAFB8" d="M227.691,65.645h-5.604c-1.104,0-2-0.896-2-2s0.896-2,2-2h5.604c1.104,0,2,0.896,2,2
				S228.795,65.645,227.691,65.645z"/>
			<path fill="#B3B7BF" d="M243.853,65.645h-5.604c-1.104,0-2-0.896-2-2s0.896-2,2-2h5.604c1.104,0,2,0.896,2,2
				S244.957,65.645,243.853,65.645z"/>
			<path fill="#B3B7BF" d="M260.014,65.645h-5.604c-1.104,0-2-0.896-2-2s0.896-2,2-2h5.604c1.104,0,2,0.896,2,2
				S261.118,65.645,260.014,65.645z"/>
			<path opacity="0.3" fill="#ABAFB8" d="M193.763,83.362h-5.916c-1.104,0-2-0.896-2-2s0.896-2,2-2h5.916c1.104,0,2,0.896,2,2
				S194.867,83.362,193.763,83.362z"/>
			<path opacity="0.3" fill="#ABAFB8" d="M210.828,83.362h-5.917c-1.104,0-2-0.896-2-2s0.896-2,2-2h5.917c1.104,0,2,0.896,2,2
				S211.933,83.362,210.828,83.362z"/>
			<path opacity="0.3" fill="#ABAFB8" d="M227.893,83.362h-5.917c-1.104,0-2-0.896-2-2s0.896-2,2-2h5.917c1.104,0,2,0.896,2,2
				S228.997,83.362,227.893,83.362z"/>
			<path opacity="0.3" fill="#ABAFB8" d="M244.957,83.362h-5.917c-1.104,0-2-0.896-2-2s0.896-2,2-2h5.917c1.104,0,2,0.896,2,2
				S246.062,83.362,244.957,83.362z"/>
			<path opacity="0.3" fill="#ABAFB8" d="M262.022,83.362h-5.916c-1.104,0-2-0.896-2-2s0.896-2,2-2h5.916c1.104,0,2,0.896,2,2
				S263.126,83.362,262.022,83.362z"/>
			<path opacity="0.3" fill="#ABAFB8" d="M193.2,92.221h-6.062c-1.104,0-2-0.896-2-2s0.896-2,2-2h6.062c1.104,0,2,0.896,2,2
				S194.305,92.221,193.2,92.221z"/>
			<path opacity="0.3" fill="#ABAFB8" d="M210.685,92.221h-6.062c-1.104,0-2-0.896-2-2s0.896-2,2-2h6.062c1.104,0,2,0.896,2,2
				S211.789,92.221,210.685,92.221z"/>
			<path opacity="0.3" fill="#ABAFB8" d="M228.169,92.221h-6.062c-1.104,0-2-0.896-2-2s0.896-2,2-2h6.062c1.104,0,2,0.896,2,2
				S229.274,92.221,228.169,92.221z"/>
			<path opacity="0.3" fill="#ABAFB8" d="M245.653,92.221h-6.062c-1.104,0-2-0.896-2-2s0.896-2,2-2h6.062c1.104,0,2,0.896,2,2
				S246.758,92.221,245.653,92.221z"/>
			<path opacity="0.3" fill="#ABAFB8" d="M263.138,92.221h-6.062c-1.104,0-2-0.896-2-2s0.896-2,2-2h6.062c1.104,0,2,0.896,2,2
				S264.242,92.221,263.138,92.221z"/>
			<path opacity="0.3" fill="#ABAFB8" d="M192.588,101.081h-6.193c-1.104,0-2-0.896-2-2s0.896-2,2-2h6.193c1.104,0,2,0.896,2,2
				S193.693,101.081,192.588,101.081z"/>
			<path opacity="0.3" fill="#ABAFB8" d="M210.453,101.081h-6.193c-1.104,0-2-0.896-2-2s0.896-2,2-2h6.193c1.104,0,2,0.896,2,2
				S211.558,101.081,210.453,101.081z"/>
			<path opacity="0.3" fill="#ABAFB8" d="M228.318,101.081h-6.194c-1.104,0-2-0.896-2-2s0.896-2,2-2h6.194c1.104,0,2,0.896,2,2
				S229.423,101.081,228.318,101.081z"/>
			<path opacity="0.3" fill="#ABAFB8" d="M246.183,101.081h-6.193c-1.104,0-2-0.896-2-2s0.896-2,2-2h6.193c1.104,0,2,0.896,2,2
				S247.287,101.081,246.183,101.081z"/>
		</g>
	</g>
	<g>
		<path fill="#E2E5E7" d="M117.137,88.719l-37.75-21.795c-0.495-0.286-1.017-0.501-1.547-0.682V24.998H72.16v41.244
			c-0.531,0.181-1.052,0.397-1.547,0.682l-37.75,21.795c-2.706,1.562-4.387,4.474-4.387,7.598h5.679c0-1.102,0.593-2.128,1.547-2.68
			L72.16,72.589v1.933h5.679v-1.933l36.458,21.049c0.954,0.551,1.547,1.578,1.547,2.68h5.679
			C121.524,93.193,119.843,90.282,117.137,88.719z"/>
		<path fill="#9FA4AE" d="M117.137,45.129l-37.75-21.795c-1.332-0.769-2.849-1.175-4.387-1.175s-3.055,0.406-4.387,1.175
			l-37.75,21.795c-2.706,1.562-4.388,4.474-4.388,7.598v43.59c0,3.125,1.681,6.036,4.387,7.598l37.75,21.795
			c1.332,0.769,2.849,1.175,4.387,1.175s3.055-0.406,4.387-1.175l37.75-21.795c2.706-1.562,4.387-4.474,4.387-7.598l0-43.59
			C121.524,49.603,119.843,46.691,117.137,45.129z M35.703,50.048l37.75-21.795c0.469-0.271,1.005-0.414,1.547-0.414
			c0.542,0,1.078,0.143,1.547,0.414l37.751,21.795c0.306,0.177,0.57,0.407,0.794,0.668L76.547,72.97
			c-0.954,0.551-2.14,0.551-3.093,0L34.908,50.716C35.132,50.454,35.396,50.225,35.703,50.048z M35.703,98.997
			c-0.954-0.551-1.547-1.578-1.547-2.68V56.84l36.458,21.048c0.495,0.286,1.017,0.501,1.547,0.682v41.475L35.703,98.997z
			 M115.844,96.318c0,1.102-0.592,2.129-1.547,2.68L77.84,120.046V78.571c0.531-0.181,1.052-0.397,1.547-0.682l36.458-21.049
			L115.844,96.318z"/>
	</g>
	<g>
		<circle fill="#3DB773" cx="225" cy="224.523" r="56.45"/>
		<g>
			<path fill="#FFFFFF" d="M238.056,251.683l-16.815,6.387c-0.055,0.01-0.108,0.02-0.163,0.03h-19.556c-1.105,0-2-0.895-2-2v-15.664
				v-47.49c0-1.105,0.895-2,2-2h46.955c1.105,0,2,0.895,2,2v47.49v10.588c0,0-3.572,0.232-4.1-0.059l-3.824-0.459
				C242.371,250.405,238.257,251.626,238.056,251.683z"/>
			<path fill="#DADADA" d="M221.136,258.1l29.342-7.076l-2.804-5.052c-0.4-0.618-1.18-0.868-1.865-0.598L221.136,258.1z"/>
		</g>
		<path opacity="0.5" fill="#D0D0D0" d="M237.919,224.295c0,0.27-0.011,0.538-0.027,0.804l3.459,0.613
			c0.04-0.467,0.065-0.939,0.065-1.417c0-1.446-0.193-2.872-0.561-4.246l-3.3,1.207
			C237.793,222.243,237.919,223.263,237.919,224.295z"/>
		<path opacity="0.3" fill="#D0D0D0" d="M237.309,213.434l-2.621,2.314c0.746,0.845,1.37,1.778,1.866,2.77l3.3-1.207
			C239.198,215.916,238.346,214.609,237.309,213.434z"/>
		<path opacity="0.8" fill="#D0D0D0" d="M234.346,233.199l2.256,2.697c1.998-1.998,3.482-4.51,4.242-7.315l-3.46-0.613
			C236.794,229.953,235.739,231.738,234.346,233.199z"/>
		<path fill="#D0D0D0" d="M232.113,235.071c-2.042,1.352-4.486,2.142-7.113,2.142c-7.123,0-12.919-5.795-12.919-12.918
			c0-7.123,5.795-12.919,12.919-12.919c1.05,0,2.089,0.128,3.098,0.376l-0.77,2.023c-0.052,0.136-0.023,0.29,0.075,0.399
			c0.075,0.083,0.18,0.128,0.288,0.128c0.034,0,0.068-0.004,0.101-0.013l6.273-1.695c0.117-0.032,0.213-0.116,0.258-0.228
			c0.046-0.112,0.037-0.239-0.025-0.344l-3.42-5.801c-0.07-0.119-0.198-0.191-0.335-0.191c-0.011,0-0.022,0-0.033,0.001
			c-0.149,0.013-0.277,0.109-0.33,0.249l-0.832,2.186c-1.412-0.387-2.872-0.585-4.349-0.585c-9.051,0-16.415,7.364-16.415,16.415
			c0,9.051,7.364,16.415,16.415,16.415c3.48,0,6.707-1.091,9.366-2.946L232.113,235.071z"/>
	</g>
	<g>
		<g>
			<circle fill="#6091CC" cx="75" cy="224.523" r="56.45"/>
			<path fill="#FFFFFF" d="M97.667,257.86H52.333c-1.105,0-2-0.895-2-2v-60.882c0-1.105,0.895-2,2-2h45.335c1.105,0,2,0.895,2,2
				v60.882C99.667,256.964,98.772,257.86,97.667,257.86z"/>
			<path fill="#6091CC" d="M88.114,220.836c-2.937,0-5.318,2.381-5.318,5.318c0,2.937,2.381,5.318,5.318,5.318
				s5.318-2.381,5.318-5.318C93.432,223.216,91.051,220.836,88.114,220.836z"/>
			<path fill="#6091CC" d="M88.114,205.397c-2.937,0-5.318,2.381-5.318,5.318c0,2.937,2.381,5.318,5.318,5.318
				s5.318-2.381,5.318-5.318C93.432,207.778,91.051,205.397,88.114,205.397z"/>
			<path fill="#DADADA" d="M88.114,236.274c-2.937,0-5.318,2.381-5.318,5.318c0,2.937,2.381,5.318,5.318,5.318
				s5.318-2.381,5.318-5.318C93.432,238.655,91.051,236.274,88.114,236.274z"/>
			<path fill="#DADADA" d="M77.766,212.715H59.885c-1.104,0-2-0.896-2-2s0.896-2,2-2h17.882c1.104,0,2,0.896,2,2
				S78.871,212.715,77.766,212.715z"/>
			<path fill="#DADADA" d="M72.17,228.154H59.885c-1.104,0-2-0.896-2-2s0.896-2,2-2H72.17c1.104,0,2,0.896,2,2
				S73.274,228.154,72.17,228.154z"/>
			<path fill="#DADADA" d="M74.969,243.592H59.885c-1.104,0-2-0.896-2-2s0.896-2,2-2h15.084c1.104,0,2,0.896,2,2
				S76.073,243.592,74.969,243.592z"/>
			<path fill="#DADADA" d="M87.969,189.88h-9.124c-0.387-1.77-1.959-3.097-3.846-3.097c-1.886,0-3.458,1.327-3.846,3.097h-9.123
				c-1.26,0-2.281,1.021-2.281,2.281v6.251h30.5v-6.251C90.25,190.901,89.229,189.88,87.969,189.88z M75,192.511
				c-0.987,0-1.787-0.8-1.787-1.787c0-0.987,0.8-1.787,1.787-1.787c0.987,0,1.787,0.8,1.787,1.787
				C76.787,191.711,75.987,192.511,75,192.511z"/>
			<g>
				<polygon fill="#FFFFFF" points="87.908,228.315 85.912,226.713 86.37,226.142 87.719,227.226 89.791,223.857 90.414,224.24 				
					"/>
				<path fill="#FFFFFF" d="M87.94,228.501l-2.204-1.769l0.614-0.765l1.337,1.073l2.062-3.354l0.836,0.514L87.94,228.501z
					 M86.088,226.694l1.788,1.435l2.366-3.847l-0.41-0.252l-2.08,3.382l-1.362-1.093L86.088,226.694z"/>
			</g>
			<g>
				<polygon fill="#FFFFFF" points="87.908,212.876 85.912,211.274 86.37,210.704 87.719,211.787 89.791,208.419 90.414,208.802 
									"/>
				<path fill="#FFFFFF" d="M87.94,213.062l-2.204-1.769l0.614-0.765l1.337,1.073l2.062-3.354l0.836,0.514L87.94,213.062z
					 M86.088,211.255l1.788,1.435l2.366-3.847l-0.41-0.252l-2.08,3.382l-1.362-1.093L86.088,211.255z"/>
			</g>
		</g>
	</g>
	<g>
		<path fill="#FFFFFF" d="M996.885,73.114l-33.234-19.188c-0.381-0.22-0.812-0.337-1.245-0.337c-1.377,0-2.497,1.12-2.497,2.497
			v38.375c0,1.377,1.12,2.497,2.497,2.497c0.434,0,0.865-0.116,1.245-0.337l33.234-19.188c0.781-0.451,1.247-1.258,1.247-2.16
			C998.132,74.372,997.666,73.565,996.885,73.114z"/>
	</g>
	<path fill="#FCFCFC" d="M239.104,368.551c-6.148-0.034-10.266,4.291-10.248,10.552c0.015,4.958,2.308,7.805,7.196,7.817
		c5.992,0.015,10.54-4.677,10.568-10.904C246.64,371.499,243.698,368.577,239.104,368.551z M241.028,375.967
		c-0.13,2.251-0.698,4.217-2.03,5.823c-0.779,0.94-1.899,1.352-3.148,0.986c-1.295-0.379-1.801-1.418-1.934-2.636
		c-0.23-2.109,0.428-4.043,1.526-5.783c0.814-1.289,1.984-2.046,3.679-1.682C240.336,372.936,241.116,374.437,241.028,375.967z"/>
	<polygon fill="none" points="222.245,371.798 222.245,371.797 222.245,371.798 	"/>
	<polygon fill="none" points="208.307,365.528 208.314,365.493 208.307,365.529 	"/>
	<path fill="#FCFCFC" d="M226.199,366.479l-0.001,0.003c-0.651-0.979-1.54-1.807-2.603-2.531c-2.633-1.797-5.629-1.889-8.642-1.931
		c-5.061-0.071-5.783-0.068-6.639,3.478l-0.001-0.004l-0.006,0.034l0,0.001l-3.072,16.749c-0.089,0.488-0.184,1.544-0.207,1.803
		c-0.008,2.054,0.822,2.694,3.281,2.785l-0.002,0.003c0,0,7.001,0.892,12.358-2.02c0.116-0.063,0.208-0.12,0.304-0.178
		c2.248-1.234,3.959-2.988,5.061-5.221l0,0.001c0.001-0.002,0.002-0.004,0.003-0.007c0.005-0.009,0.008-0.019,0.013-0.028
		C230.072,371.508,226.199,366.479,226.199,366.479z M220.277,379.068c-1.155,1.453-2.567,2.868-6.261,3.487
		c-2.203,0.369-3.262-0.133-3.119-1.337s2.129-13.489,2.129-13.489l0.002,0.001c0.163-0.718,0.583-1.402,1.773-1.43
		c6.002-0.145,7.208,3.13,7.513,5.491C222.566,373.736,221.773,377.186,220.277,379.068z"/>
	<path fill="#FCFCFC" d="M202.669,370.385L202.669,370.385c0.001,0-1.239-1.99-5.192-1.875l0.015,0.018
		c-3.529-0.007-6.635,1.909-8.31,4.733l0,0c-2.575,4.185-2.632,8.463-0.153,11.408c2.144,2.548,7.228,3.324,11.184,1.537
		c1.498-0.677,1.618-1.278,1.436-2.364c-0.181-0.987-0.44-1.642-1.469-1.469c-2.594,0.438-3.482,0.721-5.057,0.528
		c-2.177-0.267-3.034-1.551-2.891-2.548c0.167-1.167,1.334-0.472,3.138-0.559c3.841-0.185,6.368-1.736,7.185-3.092
		C204.023,374.264,203.437,371.346,202.669,370.385z M199.711,373.749c-0.174,0.681-0.748,1.118-1.06,1.285
		c-0.783,0.419-2.961,1.278-4.975,0.799c-1.184-0.281-0.365-1.559,0.555-2.48c1.333-1.333,2.535-1.345,3.229-1.354
		C198.68,371.983,200.023,372.529,199.711,373.749z"/>
	<path fill="#FCFCFC" d="M259.023,382.354c-5.125,1.082-6.617-1.591-5.468-5.449c0,0,1.281-5.406,7.729-4.062
		c0.865,0.18,1.24-1.323,1.906-3.24c0.112-0.321,0.177-0.557-0.364-0.818c-1.835-0.883-6.944-0.5-9.877,1.711
		c-3.644,2.747-5.564,7.595-4.283,11.59c1.112,3.469,3.769,5.023,8.414,4.687c3.819-0.276,4.006-1.213,3.506-3.619
		C260.516,382.822,260.289,382.087,259.023,382.354z"/>
	<circle fill="#2B4051" cx="525" cy="224.523" r="56.45"/>
	<g>
		<g>
			<g>
				<path fill="#FFFFFF" d="M509.944,196.363l16.815-6.387c0.055-0.01,0.108-0.02,0.163-0.03h19.556c1.105,0,2,0.895,2,2v15.664
					v47.49c0,1.105-0.895,2-2,2h-46.955c-1.105,0-2-0.895-2-2v-47.49v-10.588c0,0,3.572-0.232,4.1,0.059l3.824,0.459
					C505.629,197.64,509.743,196.419,509.944,196.363z"/>
				<path fill="#DADADA" d="M526.864,189.945l-29.342,7.076l2.804,5.052c0.4,0.618,1.18,0.868,1.865,0.598L526.864,189.945z"/>
			</g>
			<path fill="#C1C1C1" d="M539.085,202.48h-17.952c-1.104,0-2-0.896-2-2s0.896-2,2-2h17.952c1.104,0,2,0.896,2,2
				S540.189,202.48,539.085,202.48z"/>
			<path fill="#DADADA" d="M539.085,212.48h-32.452c-1.104,0-2-0.896-2-2s0.896-2,2-2h32.452c1.104,0,2,0.896,2,2
				S540.189,212.48,539.085,212.48z"/>
			<path fill="#DADADA" d="M539.085,222.48h-32.452c-1.104,0-2-0.896-2-2s0.896-2,2-2h32.452c1.104,0,2,0.896,2,2
				S540.189,222.48,539.085,222.48z"/>
			<path fill="#DADADA" d="M520.585,232.48h-13.952c-1.104,0-2-0.896-2-2s0.896-2,2-2h13.952c1.104,0,2,0.896,2,2
				S521.689,232.48,520.585,232.48z"/>
		</g>
		<path fill="#DADADA" d="M526.633,247.284h-11c-1.104,0-2-0.896-2-2s0.896-2,2-2h11c1.104,0,2,0.896,2,2
			S527.737,247.284,526.633,247.284z"/>
		<path fill="#DADADA" d="M509.164,245.284l2.01-2.01c0.391-0.391,0.391-1.023,0-1.414s-1.023-0.391-1.414,0l-2.01,2.01l-2.01-2.01
			c-0.391-0.391-1.023-0.391-1.414,0s-0.391,1.023,0,1.414l2.01,2.01l-2.01,2.01c-0.391,0.391-0.391,1.023,0,1.414
			c0.195,0.195,0.451,0.293,0.707,0.293s0.512-0.098,0.707-0.293l2.01-2.01l2.01,2.01c0.195,0.195,0.451,0.293,0.707,0.293
			s0.512-0.098,0.707-0.293c0.391-0.391,0.391-1.023,0-1.414L509.164,245.284z"/>
	</g>
	<g>
		<circle fill="#6D6D6D" cx="375" cy="224.523" r="56.45"/>
		<path opacity="0.2" fill="#FFFFFF" d="M349.778,255.19c0,1.104,0.896,2,2,2h46.444c1.105,0,2-0.896,2-2v-2.84h-50.444V255.19z"/>
		<path opacity="0.5" fill="#FFFFFF" d="M401.896,208.407h-53.791c-1.105,0-2,0.896-2,2v39.943c0,1.105,0.895,2,2,2h1.674h50.444
			h1.674c1.104,0,2-0.895,2-2v-39.943C403.896,209.302,403,208.407,401.896,208.407z"/>
		<path fill="#FFFFFF" d="M342.559,245.19v-45.335c0-1.105,0.895-2,2-2h60.882c1.105,0,2,0.895,2,2v45.335c0,1.105-0.895,2-2,2
			h-60.882C343.454,247.19,342.559,246.294,342.559,245.19z"/>
		<path fill="#C1C1C1" d="M380.474,209.407h-29c-1.104,0-2-0.896-2-2s0.896-2,2-2h29c1.104,0,2,0.896,2,2
			S381.579,209.407,380.474,209.407z"/>
		<path fill="#DADADA" d="M361.474,219.407h-10c-1.104,0-2-0.896-2-2s0.896-2,2-2h10c1.104,0,2,0.896,2,2
			S362.579,219.407,361.474,219.407z"/>
		<path fill="#DADADA" d="M397.474,219.407h-26c-1.104,0-2-0.896-2-2s0.896-2,2-2h26c1.104,0,2,0.896,2,2
			S398.579,219.407,397.474,219.407z"/>
		<path fill="#DADADA" d="M361.474,229.407h-10c-1.104,0-2-0.896-2-2s0.896-2,2-2h10c1.104,0,2,0.896,2,2
			S362.579,229.407,361.474,229.407z"/>
		<path fill="#DADADA" d="M397.474,229.407h-26c-1.104,0-2-0.896-2-2s0.896-2,2-2h26c1.104,0,2,0.896,2,2
			S398.579,229.407,397.474,229.407z"/>
		<path fill="#6091CC" d="M361.474,239.407h-10c-1.104,0-2-0.896-2-2s0.896-2,2-2h10c1.104,0,2,0.896,2,2
			S362.579,239.407,361.474,239.407z"/>
	</g>
	<g>
		<circle fill="#B3B7BF" cx="1125" cy="74.523" r="43.467"/>
		<path fill="#FFFFFF" d="M1125,95.779c-1.381,0-2.5-1.119-2.5-2.5V55.766c0-1.381,1.119-2.5,2.5-2.5s2.5,1.119,2.5,2.5v37.513
			C1127.5,94.66,1126.381,95.779,1125,95.779z"/>
		<path fill="#FFFFFF" d="M1143.757,77.023h-37.513c-1.381,0-2.5-1.119-2.5-2.5s1.119-2.5,2.5-2.5h37.513c1.381,0,2.5,1.119,2.5,2.5
			S1145.137,77.023,1143.757,77.023z"/>
	</g>
	<g>
		<rect x="363.057" y="338.08" fill="#3489CC" width="23.886" height="72.936"/>
		<polygon fill="#9AB8E3" points="375.033,374.598 375.065,374.548 375.033,374.497 375,374.548 		"/>
		<polygon fill="#9AB8E3" points="411.468,362.608 386.951,362.608 386.943,362.608 386.943,355.98 382.681,362.608 
			375.036,374.497 375.069,374.548 375.036,374.598 382.681,386.487 386.943,393.115 386.943,386.487 386.951,386.487 
			411.468,386.487 411.468,386.487 411.468,362.608 		"/>
		<polygon fill="#9AB8E3" points="374.964,374.497 367.319,362.608 363.057,355.98 363.057,362.608 338.54,362.608 338.54,362.608 
			338.54,386.487 338.54,386.487 363.057,386.487 363.057,393.115 367.319,386.487 374.964,374.598 374.931,374.548 		"/>
	</g>
	<path fill="#6091CC" d="M535.435,237.578l-3.133,8.858l8.858-3.133l0,0l18.176-18.176c1.172-1.172,1.172-3.071,0-4.243
		l-1.482-1.482c-1.172-1.172-3.071-1.172-4.243,0L535.435,237.578L535.435,237.578z"/>
</g>
<g id="old_icons" display="none">
</g>
<g id="Check_Scan">
	<g>
		<g>
			<circle fill="#DADADA" cx="675" cy="224.523" r="56.45"/>
		</g>
		<g>
			<g>
				<path fill="#FFFFFF" d="M712.282,248.412h-77.658c-1.259,0-2.279-1.134-2.279-2.532v-42.049c0-1.398,1.02-2.532,2.279-2.532
					h77.658c1.259,0,2.279,1.134,2.279,2.532v42.049C714.561,247.279,713.541,248.412,712.282,248.412z"/>
			</g>
			<path fill="#F1F1F1" d="M712.78,205.248c0-1.105-0.895-2-2-2h-74.154c-1.105,0-2,0.895-2,2v39.217c0,1.105,0.895,2,2,2h74.154
				c1.105,0,2-0.895,2-2V205.248z"/>
			<g>
				<path fill="#FFFFFF" d="M707.53,243.465h-68.154c-1.105,0-2-0.895-2-2v-33.217c0-1.105,0.895-2,2-2h68.154c1.105,0,2,0.895,2,2
					v33.217C709.53,242.569,708.635,243.465,707.53,243.465z"/>
			</g>
		</g>
		<g>
			<g>
				<g>
					<path fill="#DADADA" d="M703.553,227.283l-17.952,0c-1.104,0-2-0.896-2-2s0.896-2,2-2l17.952,0c1.104,0,2,0.896,2,2
						C705.553,226.388,704.658,227.283,703.553,227.283z"/>
					<path fill="#B5B5B5" d="M662.053,217.033l-17.952,0c-1.104,0-2-0.896-2-2s0.896-2,2-2l17.952,0c1.104,0,2,0.896,2,2
						C664.053,216.138,663.158,217.033,662.053,217.033z"/>
					<path fill="#DADADA" d="M677.053,227.283l-33.282,0c-1.104,0-2-0.896-2-2s0.896-2,2-2l33.282,0c1.104,0,2,0.896,2,2
						C679.053,226.388,678.158,227.283,677.053,227.283z"/>
					<path fill="#36B871" d="M691.761,237.575l-23.417,0c-1.104,0-2-0.896-2-2s0.896-2,2-2l23.417,0c1.104,0,2,0.896,2,2
						C693.761,236.679,692.866,237.575,691.761,237.575z"/>
				</g>
			</g>
			<path fill="#B5B5B5" d="M695.178,212.842l1,0c1.104,0,2,0.896,2,2s-0.896,2-2,2l-1,0c-1.104,0-2-0.896-2-2
				S694.073,212.842,695.178,212.842z"/>
			<path fill="#B5B5B5" d="M702.053,212.842l1,0c1.104,0,2,0.896,2,2s-0.896,2-2,2l-1,0c-1.104,0-2-0.896-2-2
				S700.948,212.842,702.053,212.842z"/>
		</g>
	</g>
	<path fill="#6D6D6D" d="M699.598,224.578l-3.133,8.858l8.858-3.133l0,0l18.176-18.176c1.172-1.172,1.172-3.071,0-4.243
		l-1.482-1.482c-1.172-1.172-3.071-1.172-4.243,0L699.598,224.578L699.598,224.578z"/>
</g>
</svg>
