<?xml version="1.0" encoding="utf-8"?>
<!-- Generator: Adobe Illustrator 17.1.0, SVG Export Plug-In . SVG Version: 6.00 Build 0)  -->
<!DOCTYPE svg PUBLIC "-//W3C//DTD SVG 1.1//EN" "http://www.w3.org/Graphics/SVG/1.1/DTD/svg11.dtd">
<svg version="1.1" id="Layer_1" xmlns="http://www.w3.org/2000/svg" xmlns:xlink="http://www.w3.org/1999/xlink" x="0px" y="0px"
	 viewBox="156 217 497 179.3" enable-background="new 156 217 497 179.3" xml:space="preserve">
<g>
	<g>
		<path fill="#808080" d="M277,308.2l0.3,5.5c-4.2,0.3-9.4,2.1-9.4,2.1v-1.6C267.9,314.3,273.6,311.1,277,308.2z M280.4,308.3
			c-0.7-5.2-0.3-13.9-11.9-17.5c-13.4-4.1-22.7-0.6-27,6.1c-5.5,8.7-4.5,19.3,0.7,28.9c4,7.5,3.3,14.1,2.2,18.3
			c3.7,0.4,7.4,1.7,10.8,3.5c-0.3-1-0.5-2.2-0.4-3.6c0.2-6,3.5-19,3.5-19l1,0.2c0,0-1,17-1,19.3c0,2.3,0.8,3.4,3.2,3.9
			c17.5,3,24.2-2.7,24.2-9.2c0-4.9-1.4-7.2-4.4-9.8l-0.6-4.3c-1.9-0.2-3.6-0.4-3.6-0.4l0.3-1.3c0,0,4.6-0.1,6.3-0.1
			C281.7,317.7,281,313.4,280.4,308.3z"/>
		<path fill="#808080" d="M362.4,367.9c-0.1,2.5,0.5,7,4.5,11.2c0,0,0,0,0,0c17.2-0.1,24.7-6.5,32-14.2c0,0-1.4-1.8-2.1-2
			c-2.3,1.2-6.5,4.9-14.1,5.5c8.8-1.7,11-11.9,5.1-16.7c-2.3-1.9-4.3-3.6-5.7-6.2c1.5-2.4,3.2-2.6,4.7-3.5c1.7-1,0.9-1.7-0.3-1.9
			c-0.9,0.1-1.9,0.3-3.3,1c-2.9,1-3.8-0.4-5.8-1.7c-1.6-1-4,0.2-4,0.2c2.4,1.5,4.5,3.7,5.6,5.9c-0.8,2-4.3,4.2-6.8,6.8
			c-2,2.1-3.9,12.9,5.8,16c-5.8,0-10.9-2.5-12-2.7C364.8,366.5,363.6,367.2,362.4,367.9z"/>
		<path fill="#808080" d="M360,369.3c-30.5,17.7-49.3,14.2-81.7-17.1c-6.1,1.2-13.4-0.2-15.9-0.3c-0.2,0-0.5,0-0.7,0
			c6.7,5.3,11.9,12.4,13.8,19.1c-0.4,0.8-0.8,2-0.8,2c-6.7-16.3-21.7-24.2-34.1-24.4c-19.8,0.4-44.2,14.8-56.1,44.9
			c-0.1,0.2-0.2,0.4-0.3,0.7h170.9c2.7-5.1,6.3-9.4,8.8-12.1C359.9,377.2,359.7,372.2,360,369.3z"/>
	</g>
	<g>
		<path fill="#764C85" d="M279.1,352.1c6-1.5,10-5,10-12.5c0-7-3.9-10.4-5.7-11.4c0-0.6-0.4-1.9-0.6-2.9c0.6,0.1,1.1,0.2,1.6,0.2
			c3.1,0.5,3.7-2.5,2.7-4.2c-1-1.7-3.2-7.6-3.9-13c-0.1-0.5-0.1-1-0.2-1.5c28.5,0.3,33.9,15.9,32.3,30.2c-1.6,14-3.6,26.7-3.8,35.7
			C302.4,369.2,291.2,362.6,279.1,352.1z"/>
		<path fill="#764C85" d="M239.4,343.7c-12.5,0.5-25.5,5.5-36.8,16.3c-1.4-13.7-0.6-24.3,4.4-31.5c4.5-6.4,14.2-12.2,26.6-15.7
			c0.8,6.3,3.6,11.5,5.5,16.1C242.5,337.1,239.1,343.7,239.4,343.7z"/>
		<g>
			<path fill="#764C85" d="M345.4,340.6c-0.3,1-0.7,2-1,3c-5.2-0.1-11.3-1.5-18.1-4.4c-6.6-2.8-9.1-12.8-1.4-20.8c0,0,0.1-1,0.1-1
				c-2.5,2-4.5,4.4-5.8,6.8c-1-3.9-3.1-7.6-6.5-10.7c4.7-0.4,15.4-4.4,19.1-5.4c5.6-1.4,10.6-2,14.9-1.9c1.2,5.1,2,10.2,2,15.9
				l-5.6-7.9l-2,0.3c0,0,3.2,4.9,2.9,8.4c-0.2,0,3.5-0.2,4.7-0.3c-0.1,2.3-0.3,4.6-0.6,7.1c-2.3,1-8.9,3.5-11.8,3.2l-0.1-6.7l-1.2,0
				c0,0-1.2,9.3-1,9.4c5,0.6,11.6-2.7,11.6-2.7s-2.5,4.3-3.7,7.8C341.7,340.8,344.5,340.8,345.4,340.6z"/>
			<path fill="#764C85" d="M354.5,342c-2.4,1-5.1,1.5-8.2,1.6c6.4-14.9,7.7-26.4,5.5-36.7c1.2,0.2,2.3,0.5,3.3,0.9
				c4,15.4,2.2,25.1-1.4,34.4L354.5,342z"/>
			<path fill="#764C85" d="M365.6,326.4c-0.5,5.2-2.5,9.4-5.9,12.4c2-7.8,1.4-20.7-2.5-30.2C363.4,311.6,366.4,317.7,365.6,326.4z"
				/>
		</g>
		<path fill="#764C85" d="M165.8,339.8c12.8-8.8,24.9-9,33.6-7.5c0.8-2.5,2-4.8,3.7-6.9c0.7-0.9,1.5-1.8,2.3-2.7h-45.4v23.6
			C161.5,343.8,163.6,341.4,165.8,339.8z"/>
		<path fill="#764C85" d="M198.2,337.4c-8.6-1.4-19.3-0.5-31.4,9.6c-2.7,2.2-4.9,4.3-6.8,6.5v32.9c0,4.3,3.5,7.8,7.8,7.8h13.8
			c0.2-0.6,0.6-1.6,1-2.7c4.7-12,10.7-21.4,17.4-28.6C198.1,353.5,196.9,344.9,198.2,337.4z"/>
		<path fill="#764C85" d="M630.5,322.8h-206c1.5,2.2,3.1,5.7,5.2,10.9c6.9,4.4,10.2,12.4,21.2,20.7c4.2,6.8,5.2,13,2.8,22.9
			c-4.8,0-9.8,1.8-14.6,6.1c-3.8-3.8-16.9-9.9-29.8-9.2c0,0,12.6-5.6,30.5,3.6c0,0,3.1-4.1,9.6-3.9c0,0,3-12-2-17.2
			c-12.6-8.1-14.5-16.2-22.2-22.1c-1.9-4.5-4.4-9.8-5.6-11.2c-0.2-0.2-0.4-0.4-0.6-0.6l0,0c-3.7-3.6-9-2.8-14.4-1.4
			c4.6-4.4,12.1-2,18.8-5.1c9.4-4.4,11.8-15.2,26.2-18.4c-21.5,0.5-37.5,8.4-51.1,19.7c-6.4-0.1-12.8,3-19.3,7c0,0,0,0-0.1,0
			c-1,0.6-2.1,1.3-3.1,2c0,0,0,0,0,0c-2.1,1.4-4.1,2.8-6.2,4.1l0,0c0,0,0,0,0,0c-4.4,17.8-23.7,20-44.9,11c-2.6-1.1-4.4-2.6-5.7-4.3
			c-1.5,9.2-3.4,19.1-3.9,27.2c-0.2,3.5-0.3,6.6-0.4,9c19.8,5.9,34.6-1.4,49.6-10.9l4.6,1.3c-3.3-3.3-3-10.4,0-12.7
			c4.5-3.6,7.2-6.7,7.2-6.7s-2-3.1-6-4.1c-1.7-0.4-0.5-2.5,1-3.1c1.5-0.5,4.3-1.4,6.7,0c2.4,1.4,3.6,3.5,4.6,3
			c1.9-0.9,4.3-1.8,5.4-1.9c1.9-0.5,4.4,2.4,0.8,4.6c-1.4,0.9-2.8,0-3.8,1.7c1,2,3.2,3.6,6.1,5.7c5.9,4.3,2.5,10.7,1.5,12.2
			c1.2-0.7,4-2.2,4.9-3.2c1.5,0.6,4.9,3.1,5.2,4.7c-2.5,5.1-10.4,17.6-31,18.4c0,0-6.2,4-11.1,11.2h261.9c4.3,0,7.8-3.5,7.8-7.8
			L630.5,322.8z M420,336.3l0.5-3.5l0.9,0c0,0,1.7,3.8,2.1,6.9c-0.2-0.2-7.1,0.5-10.3,0.9c1.7,2.3,4.1,3.6,5.2,4.2l-1.5,1.6
			c-2.6-1.5-5.1-3.8-6.7-6.9l0.1-0.1l0,0l0.2,0l1.7-0.7c0,0,0,0.1,0,0.1L420,336.3z"/>
	</g>
	<g>
		<path fill="#764C85" d="M161.4,267.8l0.7,0.1c1.5,10.3,11.5,17.8,23.1,17.8c12.2,0,19.8-6.2,19.8-14.8c0-3.8-1.7-6.9-4.6-8.3
			c-4.9-2.5-11.1-2.7-18.4-3.9c-14.2-2.4-21.1-7.3-21.1-16.9c0-11.1,10.3-19.7,27.8-19.7c8.7,0,17.3,2,23.9,5.2l-3.6,11.4l-0.9-0.1
			c-1.6-8.8-8.7-14.3-19.5-14.3c-10.8,0-17.8,5.7-17.8,12.7c0,3.5,2.1,6.8,5.5,8.4c5.5,2.6,12.8,3.1,21.7,4.5
			c11.7,1.9,17.3,6.8,17.3,15.6c0,12.7-11.1,22.3-29.2,22.3c-11.2,0-21.3-2.3-28.6-6.2L161.4,267.8z"/>
		<path fill="#764C85" d="M257.1,257.3v3.2c0,15.6-3.8,24-15.5,24c-7.2,0-11.6-4.6-11.6-12.2c0-9.5,8-15,23.4-15
			C254.5,257.2,255.8,257.2,257.1,257.3z M272.6,286.2v-0.7c-4.5-1-6.2-6.2-6.2-16.8c0-1.1,0-3.4,0-6.7v-5.9c0-8-1.1-13.2-6.2-17
			c-4.2-3-9.7-4.4-16.6-4.4c-8.1,0-15.5,1.6-22,5l3.1,9.8h0.5c1.2-7.8,8-12.9,17.1-12.9c10.4,0,14.9,5.9,14.9,18.7
			c-0.2,0-0.4,0-0.6,0c-24.8,0-37.4,5.8-37.4,16.3c0,9.1,7.8,15.7,19.4,15.7c8.1,0,14.9-3.8,18.6-10.4c0.8,3.3,1.8,6.3,3.5,9.2
			c1.1,0,2.2,0,3.3,0C266.8,286,269.8,286.1,272.6,286.2z"/>
		<path fill="#764C85" d="M275,285.6c5.7-1.5,5.8-7.4,5.8-21.5v-14c0-6.6,0-9.4-5.1-9.8v-0.8c4.3-0.5,8.6-1.9,13.3-3.4v14.1
			c2.6-10,9.3-15.3,18.7-15.3c10.3,0,16.4,4.6,18.4,13.7c3-8.8,9.9-13.7,18.9-13.7c13,0,18.2,8,18.2,23.5v5.7c0,1.2,0,2.3,0,3.4
			c0,11.3,0.2,16.5,5.8,18.1v0.8c-3.9-0.3-7.5-0.3-10.4-0.3c-2.4,0-5.7,0-10.1,0.3v-0.8c5.4-1.7,5.7-6.9,5.7-17.2c0-1.3,0-2.7,0-4.2
			v-5c0-14.3-4.1-21.5-12.3-21.5c-8.3,0-14.8,7.3-14.8,20.7v5.7c0,1.4,0,2.8,0,4.1c0,10.6,0.3,15.6,6,17.3v0.8
			c-3.8-0.2-7.2-0.3-10.2-0.3c-2.9,0-6.5,0-10.9,0.3v-0.8c5.8-1.7,6-7.1,6-18.3c0-1,0-2,0-3.2v-5c0-14.3-4.5-21.5-12.8-21.5
			c-9,0-15.2,8-15.2,21.6v4.9c0,0.7,0,1.2,0,1.9c0,0.4,0,0.8,0,1.1c0,11.9,0.1,16.7,5.8,18.4v0.8c-3.4-0.2-6.9-0.3-10.3-0.3
			c-3.3,0-6.7,0.1-10.5,0.3L275,285.6L275,285.6z"/>
		<path fill="#764C85" d="M408,257.3v3.2c0,15.6-3.8,24-15.5,24c-7.2,0-11.6-4.6-11.6-12.2c0-9.5,8.1-15,23.4-15
			C405.4,257.2,406.7,257.2,408,257.3z M423.5,286.2v-0.7c-4.5-1-6.2-6.2-6.2-16.8c0-1.1,0-3.4,0-6.7v-5.9c0-8-1.1-13.2-6.2-17
			c-4.2-3-9.7-4.4-16.6-4.4c-8.1,0-15.5,1.6-22,5l3.1,9.8h0.5c1.2-7.8,8-12.9,17.1-12.9c10.4,0,14.8,5.9,14.9,18.7
			c-0.2,0-0.4,0-0.6,0c-24.8,0-37.4,5.8-37.4,16.3c0,9.1,7.8,15.7,19.5,15.7c8.1,0,14.8-3.8,18.6-10.4c0.8,3.3,1.8,6.3,3.5,9.2
			c1.1,0,2.2,0,3.3,0C417.7,286,420.7,286.1,423.5,286.2z"/>
		<path fill="#764C85" d="M425.8,285.6c6-1.8,6.2-6.9,6.2-19.2c0-0.8,0-1.5,0-2.3v-14.4c0-6.9-0.5-9.5-5.4-9.8v-0.8
			c4.3-0.6,8.8-1.7,13.7-3.4v15.5c4-10.2,10.3-15.5,17.5-15.5c0.7,0,1.3,0,2,0.1l-3.5,10.8h-0.8c-1.1-1.4-2.7-2.2-4.6-2.2
			c-6.2,0-9.8,5.6-9.8,16.8v2.8c0,1.4,0,2.4,0,2.9c0,12.1,0.2,16.9,6.1,18.6v0.8c-3.5-0.2-7-0.3-10.5-0.3c-3,0-6.7,0-11.1,0.3V285.6
			z"/>
		<path fill="#764C85" d="M473.7,218.5c3.2,0,5.7,2.5,5.7,5.6c0,3.2-2.5,5.5-5.7,5.5c-3.4,0-5.7-2.2-5.7-5.5
			C468,220.9,470.4,218.5,473.7,218.5z M462.8,285.6c6.1-1.9,6.5-7.7,6.5-20.8c0-0.8,0-1.5,0-2.4v-10.8c0-8-0.2-11.1-5.6-11.4v-0.8
			c4.9-0.6,9.9-1.8,15-3.5c-0.1,4.6-0.4,10.6-0.4,18.4v8.1c0,0.5,0,1.4,0,2.9c0,13,0.4,18.4,6.5,20.3v0.8c-4.3-0.3-8-0.4-11.2-0.4
			c-2.5,0-6.1,0.1-10.9,0.4V285.6z"/>
		<path fill="#764C85" d="M489.4,239.7c7.3-2.2,11.8-7.3,16.1-15.7h0.7c-0.3,3.6-0.5,8.3-0.6,14.2h10.4v0.7l-1,2.5h-9.5v20.9
			c0,15.6,1.1,22.1,7.4,23.4v0.6c-6-0.1-10.4-0.1-13.2-0.1c-3.3-2.2-3.5-5.8-3.5-11.7c0-1.2,0-2.3,0-3.6c0-1.7,0.1-3.6,0.1-5.6
			l0.5-23.9H489L489.4,239.7z"/>
		<path fill="#764C85" d="M558.8,257.3v3.2c0,15.6-3.8,24-15.5,24c-7.2,0-11.6-4.6-11.6-12.2c0-9.5,8-15,23.4-15
			C556.2,257.2,557.4,257.2,558.8,257.3z M574.3,286.2v-0.7c-4.5-1-6.2-6.2-6.2-16.8c0-1.1,0-3.4,0-6.7v-5.9c0-8-1.1-13.2-6.2-17
			c-4.2-3-9.7-4.4-16.6-4.4c-8.1,0-15.5,1.6-22,5l3.1,9.8h0.5c1.2-7.8,8-12.9,17.1-12.9c10.4,0,14.8,5.9,14.9,18.7
			c-0.2,0-0.4,0-0.6,0c-24.8,0-37.4,5.8-37.4,16.3c0,9.1,7.8,15.7,19.5,15.7c8.1,0,14.9-3.8,18.6-10.4c0.8,3.3,1.8,6.3,3.4,9.2
			c1.1,0,2.2,0,3.3,0C568.4,286,571.4,286.1,574.3,286.2z"/>
		<path fill="#764C85" d="M576.6,285.6c5.8-1.7,6.1-6.6,6.1-17.4c0-1.2,0-2.6,0-4v-14c0-6.9-0.4-9.5-5.3-9.8v-0.8
			c4.3-0.6,8.8-1.7,13.7-3.4v14.2c3.1-10.3,9.7-15.4,19.9-15.4c13.8,0,19.5,7.8,19.5,23.5v5.7c0,1.3,0,2.2,0,2.7c0,12,0,17,6.2,18.8
			v0.8c-3.5-0.2-7-0.3-10.5-0.3c-3,0-6.7,0-11.1,0.3v-0.8c5.8-1.7,6.1-6.8,6.1-17.4c0-1.2,0-2.6,0-4v-5c0-14.3-4.1-21.4-13.3-21.4
			c-9.5,0-15.9,8-15.9,21.5v4.9c0,0.5,0,1.4,0,2.9c0,11.9,0.2,17.1,6.1,18.6v0.8c-3.5-0.2-7-0.3-10.5-0.3c-3,0-6.7,0-11.1,0.3
			L576.6,285.6L576.6,285.6z"/>
	</g>
	<g>
		<path d="M233.4,309.2c0-3.7,0.8-7.7,2.8-12.1h-76.2v21.3h50.5C216.6,314.2,224.5,311.3,233.4,309.2z"/>
		<path d="M282.7,304.9c13.1,0,22.2,2.8,28.1,7.2c5.8-0.5,19.5-7.7,24.7-8.7c17.7-3.7,32,1.9,34.8,15.1h8c5.5-2.9,11.3-4.9,17.1-4.8
			c12.4-9.6,23.7-14.3,34.8-16.5H281.3C282.1,299.6,282.4,302.3,282.7,304.9z"/>
		<path d="M630.5,297.2v21.3H426.8c9.3-4.7,13.6-17.7,23.6-19c1.7-0.2,3.2-1.3,3.8-2.2H630.5z M481.3,315.2l-1.3-14.5h-4.4l-2.4,4.7
			c-0.4,0.7-0.8,1.6-1,2.4h0c-0.3-0.8-0.8-1.8-1.1-2.4l-2.5-4.7h-4.4l-1.2,14.5h4.8l0.3-4.1c0.1-0.7,0.1-1.3,0-2.1h0
			c0.2,0.8,0.5,1.5,0.8,2.1l2.1,4.1h2l2.1-4.1c0.4-0.7,0.6-1.3,0.8-2.1h0c0,0.8,0,1.5,0,2.1l0.3,4.1H481.3z M492.6,315.2v-14.5h-4.8
			v14.5H492.6z M513.6,315.2v-14.5h-4.8v4c0,0.8,0,1.4,0.1,2l0,0c-0.4-0.6-1.1-1.5-1.7-2.1l-3.6-4h-4.2v14.5h4.8v-5
			c0-0.8,0-1.8-0.1-2.5l0,0c0.6,0.8,1.3,1.7,2.1,2.5l4.4,4.9L513.6,315.2L513.6,315.2z M525.1,315.2v-14.5h-4.8v14.5H525.1z
			 M542.4,310.6c0-2.1-1.7-4-3.8-4.7c-1.9-0.6-2.1-0.7-2.1-1.1c0-0.4,0.2-0.5,1.3-0.5c1.1,0,2.3,0.4,3.2,1l0.1-4
			c-0.8-0.5-1.8-0.9-4-0.9c-3.3,0-5.4,2-5.4,4.8c0,2,1.3,3.8,3.8,4.7c1.8,0.7,2,0.7,2,1.2c0,0.4-0.4,0.6-1.4,0.6
			c-1.7,0-3.3-0.6-4.7-1.8l0.1,4.4c1.3,1,3,1.5,5,1.5C540.4,315.6,542.4,313.6,542.4,310.6z M560.1,304.4v-3.7h-13v3.7h4.1v10.8h4.8
			v-10.7H560.1z M571.6,304.4h-1v2.1h1c0.5,0,1.1-0.3,1.1-1C572.7,304.7,572.1,304.4,571.6,304.4z M579.6,315.2l-4.3-6.2
			c1-0.5,1.9-2.1,1.9-3.5c0-2.7-2.1-4.7-5-4.7H566v14.5h4.6v-5h0.5l3.2,5H579.6z M589.4,315.2v-14.5h-4.8v14.5H589.4z M605.7,315.2
			v-3.9h-4.7v-1.4h3.4v-4h-3.4v-1.4h4.3v-3.9h-9.1v14.5L605.7,315.2L605.7,315.2z M622.3,310.6c0-2.1-1.7-4-3.8-4.7
			c-1.9-0.6-2.1-0.7-2.1-1.1c0-0.4,0.2-0.5,1.3-0.5c1.1,0,2.3,0.4,3.2,1l0.1-4c-0.8-0.5-1.8-0.9-4-0.9c-3.3,0-5.4,2-5.4,4.8
			c0,2,1.3,3.8,3.8,4.7c1.8,0.7,2,0.7,2,1.2c0,0.4-0.4,0.6-1.4,0.6c-1.7,0-3.3-0.6-4.7-1.8l0.1,4.4c1.3,1,3,1.5,5,1.5
			C620.3,315.6,622.3,313.6,622.3,310.6z"/>
	</g>
	<g>
		<path d="M637.2,298.4v8h-1.4v-8h-2.9v-1.2h7.3v1.2H637.2z"/>
		<path d="M650.2,306.3l-0.4-4.1c-0.1-0.6-0.1-1.4-0.1-2.1h0c-0.3,0.6-0.7,1.5-1,2.1l-2.1,4.2H646l-2.2-4.2c-0.3-0.6-0.7-1.4-1-2.1
			h0c0,0.7-0.1,1.5-0.1,2.1l-0.4,4.1H641l0.8-9.2h0.9l2.4,4.7c0.4,0.7,0.8,1.6,1.1,2.4h0c0.3-0.7,0.7-1.6,1.1-2.4l2.4-4.7h0.9
			l0.8,9.2L650.2,306.3L650.2,306.3z"/>
	</g>
</g>
</svg>
