<?xml version="1.0" encoding="utf-8"?>
<!-- Generator: Adobe Illustrator 18.1.1, SVG Export Plug-In . SVG Version: 6.00 Build 0)  -->
<svg version="1.1" id="Layer_1" xmlns="http://www.w3.org/2000/svg" xmlns:xlink="http://www.w3.org/1999/xlink" x="0px" y="0px"
	 viewBox="0 0 151 151" enable-background="new 0 0 151 151" xml:space="preserve">
<circle opacity="0.84" fill="#DFA44E" cx="946" cy="274.7" r="20.6"/>
<g>
	<path fill="#FFFFFF" d="M936.2,284.2c2.9,2.9,7.5,3.2,10.2,0.5c2.2-2.2,2.5-5.7,0.8-8.5l2.7-2.7l1.5,1.5c0.4,0.4,1.1,0.4,1.5,0
		l1.5-1.5c0.4-0.4,0.4-1.1,0-1.5l-1.5-1.5l2-2l1.5,1.5c0.4,0.4,1.1,0.4,1.5,0l1.5-1.5c0.4-0.4,0.4-1.1,0-1.5l-3.8-3.8
		c-0.4-0.4-1.1-0.4-1.5,0l-9.9,9.9c-2.8-1.6-6.3-1.4-8.5,0.8C933.1,276.7,933.3,281.3,936.2,284.2z M943.1,277.4
		c1.2,1.2,1.2,3.2,0,4.4c-1.2,1.2-3.2,1.2-4.4,0c-1.2-1.2-1.2-3.2,0-4.4C939.9,276.2,942,276.2,943.1,277.4z"/>
</g>
<circle opacity="0.84" fill="#DFA44E" cx="75.7" cy="75.5" r="56.9"/>
<g>
	<path fill="#FFFFFF" d="M46.2,101.6c8.1,8.1,20.7,8.7,28.1,1.3c6.1-6.1,6.8-15.7,2.3-23.4l7.4-7.3l4.2,4.2c1.2,1.2,3.1,1.2,4.3,0
		l4.1-4.1c1.2-1.2,1.2-3.1,0-4.3l-4.2-4.2l5.5-5.4l4.2,4.2c1.2,1.2,3.1,1.2,4.3,0l4.1-4.1c1.2-1.2,1.2-3.1,0-4.3l-10.4-10.5
		c-1.2-1.2-3.1-1.2-4.3,0L68.4,71.1c-7.7-4.5-17.3-3.8-23.4,2.3C37.5,80.8,38.1,93.4,46.2,101.6z M65.3,82.6c3.3,3.3,3.3,8.8,0,12.1
		c-3.3,3.3-8.8,3.3-12.1,0c-3.3-3.3-3.3-8.8,0-12.1C56.3,79.4,62.1,79.4,65.3,82.6z"/>
</g>
</svg>
